<svg width="300" height="300" xml:space="preserve" xmlns="http://www.w3.org/2000/svg">
  <path d="M117 67.7V67l-.7.3.8.4c-.8 1.6-.8.4.4 1.6l1.9.7h.3c2.3-.7 2.7 3.8 3.1 5.7 2 7.3 1.1-.3 5 9.2l3 6.1c2.3 3.8-.7 2.3 3 6.1l2.7 4.6c.8 2 1.6 2 2.3 3.4 1.2 2.7 0 1.6.8 3.5 0 0 1.1 1.1 1.1 1.5 2 2.3 1.6 2.7 3.1 5.4l5.3 6v-6.8l3.1-2c.8 2.8.4.8.4 3.5-.4 4.6 1.5 5.7.4 10.7 1.9-1.1 3-2.7 4.5-4.6 2.7-3.4 2.7-1.9 5.8-3.4 0 3.4-1.2 3.4-2.7 5.7-2 2.7 1.1-1.9-.4.8-.4.7 0 .4-1.1 1.1-1.6 1.5-3 2-3.5 4.6 3.5 0 4.6-.4 7.3.4 2.3.7 4.2 1.1 5.3 3-8.7 2-6.5 0-12.2-1.1.4 3.4-.4.4 1.2 2.7l6 15.2c1.2 2.3 3.1 4.2 3.9 6.5l1.9 3s0 .5.4.5l.7 1.5c1.2 2.3 3.5 3.8 4.6 6.1 4.6 7.3 3.5 2.7 4.6 7.6v.8l3 3.4c2.7 3.8 0 3.5 1.6 5.4 1.9 2.6 3.8 1.5 6 8.4 0 0 0 .4.5.4l3 5.7c1.6 3 3 6 5 8.4l.8.7c1.1 1.2 0-.3 1.1 1.2.8 1.1.8 1.9 1.1 3l1.6 2.7.7-8.8c.4-1.9-.3-1.5.4-3v-.4c.8-1.5 1.2-2.3 2.7-3 0 8.3.8 6 1.5 11 .4 1.5-.4 2-.4 3.8 1.6-.7 2.7-1.5 4.2-1.9l-4.2 5.8c3.5 0 2.3.7 5 1.1 0 1.5 2 2 3 3-1.9 0-3.4.4-4.1.4-1.2 0-2.7-.3-4.6-.3 1.9 3.4 3.4 8-2.3 4.2 0 3.8 1.1 7.6 0 9.9-2.7-1.2-2.7-5.4-2.3-6.9l-.8-4.6c-3 .8-2.6 3.8-6 4.2l3-8.4-6.1-1.1c-3.5-.8-3.5 0-4.2-3 3-.8 4.2-.5 8-.5l-3-4.5c-3.9-6.1-1.2-.4-5.8-8.8l-11-19.9-.4-.4-2-1.9c-1.9-3.4-1.1-5-4.5-6.8-3.9-2-2-.8-3-4.6-.5-2-2-2.3-2.8-4.6-.3-1.1-.7-1.5-1.1-2.3-1.2-1.9-2.3-2.3-3.4-4.6-.8-1.9-.4-3.8-1.2-4.5-.8-.8-1.1-.4-2.3-2-1.5-2.2-.4-3-2.7-7.6v-.4c-.7-1.5 0-1.5-1.1-3.4-1.5.8-.8-1.2-1.5 2.3-.4 2.3 1.9 5.3-1.6 7.6-1.1-2.3-1.1-2.7-1.1-5.7 0-1.5-.4-4.2-.4-6.5h.8l-.4-.8v.8c-2 .8-1.5 2.3-2.7 4.2-3 4.6-.4 6.1-4.2 10.3-2.6 2.7-1.5 1.2-2.6 4.6-.8 2.3-2 3.4-3.1 5-1.5 1.9-2 3.8-3 5.3-1.2 2-1.2.4-2 2-1.9 3 .4-1.2-.3 2.6-.8 2.7-3.1 1.9-4.6 3.8-2 1.9-.4 0-1.2 2.3l-7.6 12.6c-.8 1.5-.8 1.1-1.5 2.7-.4.7-.4.7-.4 1.1l-6.1 12.6c-.8 1.1-.4.8-.8 1.1l-4.2 6.2c-.7.7-1.1 1.5-1.9 2.6 3.8 0 5 0 8 .4-.7 3-1.1 2.3-4.2 3-2.3.4-3.8 1.2-6 1.2.7 2.7 0 0 .7 2l2.3 6.8c-4.6-.4-2-3-6.1-4.2-1.2 2.7.3-.4-.4 2.7l-.8 5c-.7 2.6 0 2.2-1.9 3-1.1-2.3 0-6.1 0-10-1.5 1.2-1.9 1.6-4.2 2 .4-2.7.8-4.2 2-6.1-2 0-3.5.3-4.3.3-1.1 0-2.7-.3-4.6-.3.8-.8 0 0 1.2-.8l1.5-.8c1.2-.7 0 .4.4-.4v-.7c2.7-.8 1.5-1.2 5-1.2-1.2-1.5-2.3-2.6-3.1-4.2 2.3.4 3 1.2 4.6 2 0-2.3-.4-2.3-.4-3.5.4-3.4 1.5-3.4 1.5-11.4 3 1.1 2.7 5.3 3.5 7.6.3 1.1.3.4.3 1.9v5.3c2-1.9 2.7-5.3 4.6-7.6 3-3.8 5.4-10 6.9-12.2 1.1-2 .4.4 1.1-2.3l2.7-5.7c1.5-1.6 1.2-.4 2.3-2 2.3-2.2 0-3.4 5-9.1 1.5-1.5 0-1.1 1.1-3.8.4-1.2 2-2 3-3.4l14.5-25 1.1-3.4c.8-3-.4-.4 1.5-2.7 2.7-3.4-.3-1.9 1.6-5.7h-2.3c-5.4 1.1-.4 1.1-6.1.4.7-1.2.7-1.2 1.9-2l2.7-1.5c2.2-1.9 2.2-.7 5.3-1.1-1.5-2-2-1.5-4.2-2.7l-1.5-.7c-2.3-1.2-1.2.3-2.7-1.6 6.1 0 6.9 1.6 11.5 2-2-2-3.5-6.2-5.4-7.7-1.1-.8-.4 0-1.9-.8-2.3-1.1-.4.4-2-1.9l-1.8-5c-.8-2.6 0-1.8-2.3-3.4-3.4-2.6-1.5-3.4-3.8-6.4-1.6-2-1.2-3.9-1.6-5.4-.7-3.8-3.8-1.9-3.8-8-6-.4-.4-5.7-7.2-9.2 0-1.9.4-3 .4-4.2 0-1.1-1.2-2.3-2.3-3 .4 2.6 1.1 2.3 1.1 7.6 0 2.3-.7 6.5-1.5 8.4l-1.2-3.8c-1.1-3.8-1.1-1.5-1.1-6.5 0-4.6.4-1.5 1.1-4.6-3.8.4-2.6 2.7-5.3 5.4l-2.7 1.9c0-1.6.4-2.3.4-3 1.2-4.3 0 1 2.3-4.7l.4-.7a10 10 0 0 0 1.1-3c-2.6.7 0 .3-1.9.7l-5.7 1.9c1.9-2.3 5.3-2.7 6.9-5-3-.7-9.2-5-11.5-7.2l7.6 1.9c0-4.2-1.1-2.7-2.2-5.7-.8-1.6-2-4.6-2-5.8l4.2 3.5c4.2 3.8 1.2 3.8 6.2 5l.7-4.6c.4-3.1-1.1-2 1.2-3.5.7 2.7 1.9 6.1 1.9 9.2 5-3.5 1.9-4.6 6-6.5 1.2-.8 2-.8 3.1-1.2 2.3 5-2.6 5.8-2.6 5.8-3.5 1.9-.8.7-1.2 3-.4 2.3-1.1.8-2.3 3 2 .8 3 .5 5.4 0 3.4-.7 2.3 0 6 0-1.8 2.7-7.2 4.7-8.7 4.7-1.5-.8-3-1.2-3.8-1.6z" style="clip-rule:evenodd;fill:#fff;fill-opacity:1;fill-rule:evenodd"/>
</svg>
